<svg width="128" height="93" viewBox="0 0 128 93" fill="none" xmlns="http://www.w3.org/2000/svg">
    <path fill-rule="evenodd" clip-rule="evenodd" d="M63.7316 70.2524L127.218 67.2529L63.7316 64.2524L0.217773 67.2529L63.7316 70.2524Z" fill="#8817D1"/>
    <path fill-rule="evenodd" clip-rule="evenodd" d="M63.7311 81.2524L107.218 78.7529L63.7311 76.2524L20.2178 78.7529L63.7311 81.2524Z" fill="#8817D1"/>
    <path fill-rule="evenodd" clip-rule="evenodd" d="M63.731 92.2524L85.2178 89.7521L63.731 87.2524L42.2178 89.7521L63.731 92.2524Z" fill="#8817D1"/>
    <path fill-rule="evenodd" clip-rule="evenodd" d="M127.539 55.8957V55.7903C127.534 53.5803 127.383 51.4613 127.103 49.3419L126.355 45.1202C125.716 42.2419 124.832 39.4445 123.714 36.7463L122.758 34.4443L121.414 31.9198C118.672 26.8467 115.087 22.1994 110.816 18.1143L66.9105 16.448L107.192 14.9205C95.8074 5.65056 80.547 0 63.7692 0C50.1351 0 37.5011 3.73223 27.1349 10.1061L66.9105 11.615L22.4191 13.3042C18.723 16.0605 15.3924 19.1791 12.4998 22.6021L10.6914 24.7827L9.05634 27.3084C6.73035 30.5385 4.87028 34.0391 3.43566 37.7157L2.75199 39.7066L1.93995 42.1263C0.676021 46.5313 0 51.1742 0 55.8957H127.539H127.539Z" fill="url(#paint0_linear_599_94)"/>
    <path d="M83.7493 30.9812C91.0522 27.0196 96.3409 25.5356 104.776 27.784C113.209 30.0324 113.892 46.0132 117.431 52.8649C112.404 46.6681 109.526 34.8271 100.733 34.2887C91.9378 33.7514 83.0396 36.8252 77.3463 42.3669C78.6874 43.4479 80.0286 44.5289 81.3686 45.6088C70.0405 52.1706 54.7208 53.6445 41.6223 49.4341C46.3268 48.9373 50.8034 47.2163 54.2924 44.563C48.9978 36.8025 36.628 34.4655 26.3373 36.0392C16.0455 37.6139 15.6423 50.2849 5.74512 53.052C14.2662 43.3566 18.6768 31.131 31.4527 27.4926C36.3602 26.0939 38.9577 25.8438 43.7419 27.7064C49.5157 29.9561 57.5587 38.0169 63.7972 38.898C69.3524 39.6842 79.0836 33.5126 83.7495 30.9812H83.7493Z" fill="black"/>
    <defs>
        <linearGradient id="paint0_linear_599_94" x1="63.7694" y1="55.8963" x2="63.7694" y2="-0.000959541" gradientUnits="userSpaceOnUse">
            <stop stop-color="#9900CC"/>
            <stop offset="1" stop-color="#00CCFF"/>
        </linearGradient>
    </defs>
</svg>
