<svg width="29" height="28" viewBox="0 0 29 28" fill="none" xmlns="http://www.w3.org/2000/svg">
    <path d="M13.3812 3.55809C13.0807 3.58182 12.7818 3.62272 12.4861 3.68059C12.9175 4.22002 13.2534 4.82634 13.4797 5.47434L20.274 5.31684C18.251 3.97477 15.8172 3.35378 13.3812 3.55809Z" fill="url(#paint0_linear)"/>
    <path d="M10.5525 4.19685L10.1139 4.3806C9.95278 4.44185 9.8006 4.5031 9.65737 4.5731C9.51414 4.6431 9.20979 4.8006 8.99495 4.9231C8.89068 4.98256 8.82226 5.01728 8.76512 5.04627C8.70454 5.07701 8.65662 5.10133 8.59213 5.14185C8.46681 5.2206 8.1356 5.4481 7.92076 5.6056L7.5985 5.82435C7.29415 6.06935 6.99874 6.3231 6.70334 6.6031C6.42584 6.87435 6.16624 7.1631 5.9156 7.4781L5.6739 7.8106C5.6232 7.88058 5.57149 7.94958 5.51979 8.01859C5.41636 8.15663 5.31285 8.29478 5.21737 8.4406L4.97568 8.8606C4.85931 9.06185 4.74294 9.27185 4.63552 9.4906C4.5281 9.70935 4.49229 9.7881 4.42963 9.9456C4.41023 9.99436 4.39169 10.0406 4.37374 10.0854C4.33371 10.1852 4.29663 10.2777 4.25955 10.3744C4.72005 10.8775 5.29342 11.2697 5.9348 11.5201C6.57617 11.7706 7.26815 11.8726 7.95656 11.8181C8.82658 11.7459 9.65597 11.4265 10.3426 10.8992C11.0292 10.372 11.5431 9.66 11.8209 8.85088C12.0988 8.04175 12.1284 7.17087 11.9062 6.34549C11.684 5.52011 11.2197 4.77627 10.5704 4.2056L10.5525 4.19685Z" fill="url(#paint1_linear)"/>
    <path d="M15.1716 24.5055H14.5987L10.284 12.9555C10.6446 12.7858 10.9865 12.5805 11.3045 12.343L21.2139 22.038C19.5116 23.4551 17.3993 24.3177 15.1716 24.5055Z" fill="url(#paint2_linear)"/>
    <path d="M7.32995 13.5505C7.58028 13.568 7.83156 13.568 8.08189 13.5505C8.24731 13.5328 8.41166 13.5065 8.57423 13.4718L12.6383 24.3918C10.5809 24.0816 8.66119 23.1905 7.11512 21.828L7.32995 13.5505Z" fill="url(#paint3_linear)"/>
    <path d="M5.38745 19.868C3.83805 17.6398 3.23761 14.9093 3.7135 12.2555C4.26308 12.6828 4.88385 13.0143 5.54858 13.2355L5.38745 19.868Z" fill="url(#paint4_linear)"/>
    <path d="M22.494 20.7956L12.5756 11.1006C12.8187 10.7898 13.0286 10.4556 13.2022 10.1031L25.0183 14.3294C24.9487 16.7017 24.0589 18.981 22.494 20.7956Z" fill="url(#paint5_linear)"/>
    <path d="M13.7393 8.44053C13.8112 8.03623 13.8382 7.62551 13.8199 7.21553L22.2791 7.00554C23.6731 8.52359 24.5845 10.4057 24.902 12.4218L13.7393 8.44053Z" fill="url(#paint6_linear)"/>
    <path fill-rule="evenodd" clip-rule="evenodd" d="M13.1216 0.0493017C10.3011 0.281291 7.6141 1.325 5.39995 3.04863C3.1858 4.77226 1.54378 7.09853 0.681222 9.73371C-0.181337 12.3689 -0.225755 15.1948 0.553577 17.8546C1.33291 20.5145 2.90104 22.889 5.05998 24.6783C7.21891 26.4676 9.87183 27.5915 12.6838 27.908C15.4957 28.2246 18.3405 27.7197 20.8591 26.457C23.3777 25.1943 25.457 23.2305 26.8345 20.8134C28.2121 18.3964 28.8261 15.6346 28.599 12.8768C28.4477 11.04 27.927 9.25037 27.0666 7.61069C26.2062 5.971 25.0231 4.51349 23.5852 3.32173C22.1472 2.12998 20.4827 1.22744 18.6872 0.66588C16.8916 0.104319 15.0003 -0.105213 13.1216 0.0493017ZM26.8087 13.0168C26.9433 14.6215 26.7532 16.2363 26.2493 17.7692C25.7454 19.3021 24.9376 20.7229 23.872 21.9506C22.8063 23.1783 21.5037 24.1889 20.0386 24.9245C18.5734 25.6601 16.9743 26.1065 15.3327 26.238C13.6911 26.3696 12.039 26.1838 10.4708 25.6913C8.90259 25.1988 7.449 24.4091 6.19301 23.3675C4.93701 22.3259 3.90321 21.0526 3.15063 19.6204C2.39804 18.1883 1.94141 16.6252 1.80681 15.0205C1.68372 13.5656 1.83235 12.101 2.24544 10.698L2.37972 10.278C2.99049 8.43654 4.03906 6.76275 5.43947 5.39389C6.83987 4.02503 8.55223 3.00007 10.4362 2.40305L10.8658 2.2718C11.6407 2.0531 12.4349 1.90661 13.238 1.8343C14.8807 1.69514 16.5354 1.87421 18.1072 2.36126C19.6789 2.8483 21.1369 3.63374 22.3976 4.67256C23.6583 5.71138 24.6968 6.98316 25.4538 8.41503C26.2107 9.84689 26.6711 11.4107 26.8087 13.0168Z" fill="url(#paint7_linear)"/>
    <defs>
        <linearGradient id="paint0_linear" x1="14.3226" y1="-1.808e-07" x2="28.1804" y2="22.2109" gradientUnits="userSpaceOnUse">
            <stop stop-color="#D64FA0"/>
            <stop offset="1" stop-color="#FFC979"/>
        </linearGradient>
        <linearGradient id="paint1_linear" x1="14.3226" y1="-1.808e-07" x2="28.1804" y2="22.2109" gradientUnits="userSpaceOnUse">
            <stop stop-color="#D64FA0"/>
            <stop offset="1" stop-color="#FFC979"/>
        </linearGradient>
        <linearGradient id="paint2_linear" x1="14.3226" y1="-1.808e-07" x2="28.1804" y2="22.2109" gradientUnits="userSpaceOnUse">
            <stop stop-color="#D64FA0"/>
            <stop offset="1" stop-color="#FFC979"/>
        </linearGradient>
        <linearGradient id="paint3_linear" x1="14.3226" y1="-1.808e-07" x2="28.1804" y2="22.2109" gradientUnits="userSpaceOnUse">
            <stop stop-color="#D64FA0"/>
            <stop offset="1" stop-color="#FFC979"/>
        </linearGradient>
        <linearGradient id="paint4_linear" x1="14.3226" y1="-1.808e-07" x2="28.1804" y2="22.2109" gradientUnits="userSpaceOnUse">
            <stop stop-color="#D64FA0"/>
            <stop offset="1" stop-color="#FFC979"/>
        </linearGradient>
        <linearGradient id="paint5_linear" x1="14.3226" y1="-1.808e-07" x2="28.1804" y2="22.2109" gradientUnits="userSpaceOnUse">
            <stop stop-color="#D64FA0"/>
            <stop offset="1" stop-color="#FFC979"/>
        </linearGradient>
        <linearGradient id="paint6_linear" x1="14.3226" y1="-1.808e-07" x2="28.1804" y2="22.2109" gradientUnits="userSpaceOnUse">
            <stop stop-color="#D64FA0"/>
            <stop offset="1" stop-color="#FFC979"/>
        </linearGradient>
        <linearGradient id="paint7_linear" x1="14.3226" y1="-1.808e-07" x2="28.1804" y2="22.2109" gradientUnits="userSpaceOnUse">
            <stop stop-color="#D64FA0"/>
            <stop offset="1" stop-color="#FFC979"/>
        </linearGradient>
    </defs>
</svg>
