<svg id="Layer_1" data-name="Layer 1" xmlns="http://www.w3.org/2000/svg" xmlns:xlink="http://www.w3.org/1999/xlink" viewBox="0 0 190.12 190.12"><defs><style>.cls-1{fill:#301748;}.cls-2{fill:url(#linear-gradient);}.cls-3{fill:url(#linear-gradient-2);}.cls-4{fill:url(#linear-gradient-3);}.cls-5{fill:url(#linear-gradient-4);}.cls-6{fill:url(#linear-gradient-5);}</style><linearGradient id="linear-gradient" x1="11006.99" y1="97.6" x2="11139.09" y2="97.6" gradientTransform="matrix(-1, 0, 0, 1, 11171.65, 0)" gradientUnits="userSpaceOnUse"><stop offset="0" stop-color="#e2107b"/><stop offset="1" stop-color="#301748"/></linearGradient><linearGradient id="linear-gradient-2" x1="11104" y1="87.39" x2="11112.01" y2="87.39" gradientTransform="matrix(-1, 0, 0, 1, 11171.65, 0)" gradientUnits="userSpaceOnUse"><stop offset="0" stop-color="#e2107b"/><stop offset="1" stop-color="#301748"/><stop offset="1" stop-color="#0d1126"/></linearGradient><linearGradient id="linear-gradient-3" x1="11091.22" y1="32.32" x2="11099.43" y2="32.32" xlink:href="#linear-gradient-2"/><linearGradient id="linear-gradient-4" x1="11138.78" y1="72.1" x2="11146.18" y2="72.1" xlink:href="#linear-gradient-2"/><linearGradient id="linear-gradient-5" x1="11007.24" y1="137.22" x2="11073.21" y2="111.78" gradientTransform="matrix(-1, 0, 0, 1, 11171.65, 0)" gradientUnits="userSpaceOnUse"><stop offset="0" stop-color="#0d1126"/><stop offset="0" stop-color="#301748"/><stop offset="1" stop-color="#e2107b"/></linearGradient></defs><rect class="cls-1" x="-0.08" y="-3.03" width="192" height="195"/><path class="cls-2" d="M91.56,149.14a84.86,84.86,0,0,1-8.06-8.52c-5.93-7.62-19.13-21-22.41-24.37-3.79-3.86-7.6-7.7-11.35-11.59-.54-.56-1.43-1.21-.88-2.16s1.58-.8,2.49-.75a4,4,0,0,1,1.19.26c2.68,1.07,5.35,2.15,8,3.24,5.32,2.15,10.61,4.4,16,6.43,3.23,1.23,4.6,0,4-3.38-.51-2.84-1.23-5.63-2-8.41a4.43,4.43,0,0,1,3.75-5.66c1.1-.16,2.22-.18,3.33-.26s2.24-.37,2.68-1.65a2.83,2.83,0,0,0-.95-3.2Q81.91,83.84,76.51,78.5L49.38,51.7q-8-7.91-16-15.81c-.53-.52-1.08-1-.65-1.78s1.12-.72,1.84-.57c2.22.44,3.82,2,5.57,3.23,4.68,3.22,9.57,6.1,14.35,9.14,3.31,2.11,6.67,4.13,10,6.23s6.43,4.25,9.67,6.31c4.67,3,9.38,5.84,14,8.8q7.53,4.81,15,9.72c.9.59,1.73.89,2.66,0s.81-1.68.38-2.82c-1-2.63-2.87-4.84-3.61-7.59-.25-.93-.45-1.77.44-2.48a2.17,2.17,0,0,1,2.56-.12,100.93,100.93,0,0,1,9.88,5.33,100.72,100.72,0,0,0,12.16,6.53c6.81,3.24,13.3,7,19.74,10.88a31.19,31.19,0,0,1,9,8.67A40.64,40.64,0,0,1,161,103.7a50.89,50.89,0,0,1,3.42,13.3c1.06,8.15-1.92,18.63-5.72,24.25a45.68,45.68,0,0,1-12.43,13,50.14,50.14,0,0,1-10.69,5.57c-4,1.56-8,1.79-12.43,2-.35,0-.72,0-1.07,0C113,161.2,104.11,159.91,91.56,149.14Zm58.57-27.23A26.57,26.57,0,0,0,123.31,94.8c-14.36.08-26.18,11.8-26.23,27.31,0,12.67,12.35,26.77,26.38,25.88C138,148.62,150,135.53,150.13,121.91Z"/><path class="cls-3" d="M59.63,87.39a4.17,4.17,0,0,0,4.07,4.19,4,4,0,0,0,4-4.28,4.29,4.29,0,0,0-4.2-4.11A4.09,4.09,0,0,0,59.63,87.39Z"/><path class="cls-4" d="M76.58,36.27a3.67,3.67,0,0,0,3.85-4,4.12,4.12,0,0,0-4-3.86c-1.81,0-4.24,2.27-4.26,4A4.16,4.16,0,0,0,76.58,36.27Z"/><path class="cls-5" d="M32.87,72.08a3.5,3.5,0,0,0-3.69-3.68,4.09,4.09,0,0,0-3.71,3.86,3.86,3.86,0,0,0,3.71,3.54A3.56,3.56,0,0,0,32.87,72.08Z"/><path class="cls-6" d="M123.46,148c14.49.63,26.58-12.46,26.67-26.08A26.57,26.57,0,0,0,123.31,94.8c-14.36.08-26.18,11.8-26.23,27.31C97.05,134.78,109.43,148.88,123.46,148Z"/></svg>
