<svg width="60" height="60" viewBox="0 0 60 60" fill="none" xmlns="http://www.w3.org/2000/svg">
<path d="M30 0C46.5678 0 60 13.4322 60 30C60 46.5678 46.5672 60 30 60C13.4328 60 0 46.5714 0 30C0 13.4286 13.4304 0 30 0Z" fill="#E6007A"/>
<path d="M30.2299 19.7964C33.8426 19.7964 36.7713 18.0931 36.7713 15.9919C36.7713 13.8908 33.8426 12.1875 30.2299 12.1875C26.6172 12.1875 23.6885 13.8908 23.6885 15.9919C23.6885 18.0931 26.6172 19.7964 30.2299 19.7964Z" fill="white"/>
<path d="M30.2299 48.4618C33.8426 48.4618 36.7713 46.7585 36.7713 44.6574C36.7713 42.5562 33.8426 40.8529 30.2299 40.8529C26.6172 40.8529 23.6885 42.5562 23.6885 44.6574C23.6885 46.7585 26.6172 48.4618 30.2299 48.4618Z" fill="white"/>
<path d="M21.1145 25.0627C22.9208 21.9341 22.9091 18.5456 21.0883 17.4944C19.2675 16.4431 16.327 18.1271 14.5207 21.2557C12.7143 24.3843 12.7261 27.7728 14.5469 28.824C16.3677 29.8753 19.3081 28.1913 21.1145 25.0627Z" fill="white"/>
<path d="M45.9371 39.3936C47.7435 36.265 47.7328 32.8771 45.9132 31.8266C44.0936 30.776 41.1542 32.4606 39.3478 35.5892C37.5415 38.7178 37.5522 42.1057 39.3718 43.1563C41.1914 44.2068 44.1308 42.5222 45.9371 39.3936Z" fill="white"/>
<path d="M21.0892 43.1554C22.9101 42.1041 22.9218 38.7157 21.1154 35.5871C19.3091 32.4585 16.3687 30.7745 14.5479 31.8257C12.727 32.877 12.7153 36.2655 14.5217 39.3941C16.328 42.5227 19.2684 44.2067 21.0892 43.1554Z" fill="white"/>
<path d="M45.9142 28.8247C47.7338 27.7741 47.7445 24.3862 45.9381 21.2576C44.1318 18.129 41.1924 16.4444 39.3728 17.495C37.5532 18.5456 37.5425 21.9335 39.3488 25.0621C41.1552 28.1907 44.0946 29.8752 45.9142 28.8247Z" fill="white"/>
</svg>
